<?xml version="1.0" encoding="utf-8"?>
<svg version="1.1" id="Icons" x="0px" y="0px" viewBox="0 0 32 32" style="enable-background:new 0 0 32 32;" xmlns="http://www.w3.org/2000/svg">
  <style type="text/css">
	.st0{fill:none;stroke:#000000;stroke-width:2;stroke-linecap:round;stroke-linejoin:round;stroke-miterlimit:10;}
</style>
  <path class="st0" d="M27.8,23.2l-1.1-1.7c-1.9-2.8-2.9-6.1-2.9-9.5c0-3.6-2.4-6.5-5.6-7.5C17.9,3.6,17,3,16,3s-1.9,0.6-2.2,1.5 c-3.2,1-5.6,3.9-5.6,7.5c0,3.4-1,6.7-2.9,9.5l-1.1,1.7C3.7,24,4.2,25,5.2,25h21.6C27.8,25,28.3,24,27.8,23.2z" style="stroke-opacity: 0.62; stroke-width: 0px; fill: rgb(5, 13, 30);"/>
  <path class="st0" d="M 20.105 25.702 C 20.105 27.902 18.305 29.702 16.105 29.702 C 13.905 29.702 12.105 27.902 12.105 25.702" style="stroke-opacity: 0; fill: rgb(5, 13, 30);"/>
</svg>